<svg width="1728" height="312" viewBox="0 0 1728 312" fill="none" xmlns="http://www.w3.org/2000/svg">
<path d="M461.649 0.312855C462.462 0.208571 463.275 0.104289 464.11 0C464.131 9.57336 464.193 19.1467 464.131 28.6992C463.88 32.0781 465.048 35.3526 465.069 38.7106C464.089 43.3617 463.985 48.1171 464.402 52.8308C468.135 52.9768 471.764 53.9362 475.393 54.7913C475.664 56.6893 475.831 58.6081 476.04 60.527C477.75 61.3404 479.44 62.133 481.15 62.9881C481.922 77.442 479.002 221.626 483.444 235.413C485.884 242.15 484.362 249.47 484.612 256.478C485.676 256.478 486.76 256.458 487.845 256.458C488.325 248.344 490.327 256.77 490.16 224.525C492.413 224.317 494.644 224.108 496.918 223.879C497.085 222.356 497.293 220.834 497.523 219.332C499.754 219.353 502.007 219.374 504.259 219.353C504.885 222.21 506.867 224.171 509.703 224.797C509.953 231.825 509.557 238.875 509.995 245.925C510.558 245.904 511.705 245.904 512.268 245.883C512.248 226.924 512.268 207.944 512.435 188.985C521.654 188.589 530.894 188.651 540.113 189.11C540.446 205.358 538.548 204.774 544.263 208.215C545.577 107.789 540.947 130.085 551 121.596C551.667 114.192 550.499 106.684 551.396 99.2793C552.689 96.255 554.713 93.5436 555.88 90.415C556.777 92.1253 557.674 93.8565 558.571 95.5667C563.598 95.3999 568.603 95.5042 573.63 95.6084C573.734 97.0267 573.859 98.4659 573.984 99.8841C574.714 99.8841 575.444 99.8633 576.174 99.8633C576.425 98.3616 576.675 96.8599 576.946 95.3582C578.156 95.3373 579.386 95.3373 580.596 95.2956C581.138 104.723 580.283 149.711 580.763 168.378C582.974 168.441 585.205 168.42 587.416 168.378C587.521 183.729 587.041 199.101 587.646 214.452C590.294 214.493 592.964 214.452 595.634 214.41C595.738 217.184 595.822 219.937 595.926 222.711C598.241 222.794 600.556 222.836 602.871 222.857C599.91 213.45 602.725 221.898 601.265 176.471C602.475 156.824 600.494 137.114 601.724 117.508C614.426 117.321 627.128 117.467 639.83 117.362C640.789 129.251 639.454 141.16 639.913 153.049C643.48 153.466 646.838 152.214 650.258 151.484C665.401 154.947 661.813 152.694 661.897 169.776C668.008 169.609 674.119 169.63 680.209 170.068C680.272 171.34 680.334 172.592 680.397 173.864C688.218 179.099 684.068 177.702 692.243 178.452C692.348 212.762 691.263 213.742 694.204 214.222C694.83 197.328 694.037 180.392 694.433 163.498C700.461 162.726 705.842 159.368 711.87 158.826C718.732 160.265 725.74 159.806 732.664 159.911C732.977 174.052 732.477 188.193 732.956 202.313C737.712 201.52 733.186 140.222 735.146 122.785C735.835 122.618 752.979 118.489 755.023 117.133C755.941 115.464 756.587 113.671 757.338 111.919C758.256 113.233 759.174 114.526 760.112 115.798C770.541 114.88 780.969 115.673 791.398 115.756C792.002 138.949 791.147 162.142 791.606 185.335C794.338 185.439 797.071 185.502 799.803 185.648C799.97 187.275 800.137 188.902 800.304 190.529C806.623 190.695 812.964 190.716 819.304 190.529C819.283 184.814 818.929 179.078 819.346 173.363C823.413 173.447 827.501 173.509 831.589 173.259C831.652 168.858 831.214 164.395 832.34 160.098C833.612 155.176 833.424 149.962 835.072 145.144C836.866 141.765 836.845 145.206 843.874 127.54C845.605 123.494 844.792 118.989 845.73 114.776C846.272 112.377 846.71 109.979 847.044 107.539C848.379 109.291 849.171 111.376 848.984 113.608C848.275 126.956 855.929 137.489 858.953 143.851C862.019 154.133 861.519 151.401 861.435 207.172C863.146 207.193 864.856 207.214 866.587 207.214C866.816 190.424 866.816 173.634 866.796 156.865C866.691 153.424 868.339 150.233 868.422 146.791C868.548 143.475 868.276 140.076 869.257 136.864C870.779 132.066 870.07 126.998 870.425 122.076C870.341 119.99 872.239 118.718 873.24 117.091C875.576 113.983 874.68 109.541 877.162 106.558C880.457 102.679 879.956 97.1936 881.25 92.5216C883.022 86.8068 882 80.7374 882.146 74.8557C882.313 74.8766 882.668 74.8766 882.835 74.8974C882.209 104.535 884.837 96.255 879.623 104.848C882.23 105.349 884.858 105.724 887.507 105.974C888.237 108.999 888.946 112.023 889.759 115.026C890.468 117.571 893.326 119.198 893.096 122.055C893.117 124.933 893.409 127.832 894.327 130.586C901.981 128.813 909.97 129.105 917.749 129.71C922.275 136.78 928.574 142.537 935.123 147.709C935.165 148.064 935.186 206.797 935.186 207.152C938.502 207.235 941.943 206.609 945.134 207.819C949.932 209.675 955.146 208.382 960.151 208.862C961.424 207.214 962.717 205.587 964.114 204.044C966.283 205.754 968.619 207.485 971.56 207.298C971.831 149.816 968.494 140.18 983.511 137.218C983.49 135.278 983.49 133.318 983.49 131.378C984.951 130.44 986.39 129.459 988.016 128.792C990.206 130.836 988.58 134.277 989.643 136.822C990.29 138.261 991.166 139.596 991.833 141.035C992.897 143.162 993.043 146.187 995.921 146.499C996.86 145.311 997.194 143.058 999.091 143.121C1012.42 142.286 1004.08 144.164 1019.57 146.499C1019.57 150.859 1019.55 155.239 1019.59 159.598C1022.99 159.869 1026.41 159.952 1029.86 159.994C1030.19 172.237 1029.77 184.501 1030.02 196.744C1031.69 197.411 1033.36 198.1 1035.03 198.809C1035.42 204.565 1035.26 210.322 1035.47 216.099C1036.43 216.078 1037.38 216.078 1038.37 216.078C1042.64 197.411 1042.47 200.477 1062.37 200.686C1063.54 200.811 1065.17 200.603 1065.69 202C1068.67 209.383 1072.3 216.767 1072.45 224.922C1072.38 227.842 1075.8 229.469 1075.53 232.451C1075.57 250.659 1075.2 268.867 1075.7 287.076C1078.56 287.138 1081.43 287.138 1084.29 287.076C1084.46 279.129 1084.06 271.183 1084.5 263.257C1087.75 263.111 1091.03 263.069 1094.3 263.007C1094.43 260.316 1094.55 257.626 1094.76 254.935C1098.48 254.956 1102.19 254.956 1105.9 254.998C1106.28 296.294 1104.82 297.087 1108.05 297.421C1108.72 284.698 1108.17 199.727 1108.19 199.643C1110.3 195.826 1115.18 197.432 1118.66 196.556C1127.03 193.803 1135.43 195.409 1137.98 197.14C1139.94 198.225 1141.04 200.269 1142.15 202.125C1150.76 201.583 1159.36 202.563 1167.97 202.375C1169.24 206.818 1168.68 230.386 1168.64 231.054C1174.21 230.783 1179.78 231.054 1185.32 230.845C1185.76 228.071 1186.24 225.318 1186.91 222.607C1189.72 226.006 1189.18 231.095 1192.37 234.224C1196.69 239.96 1195.08 230.762 1195.59 283.718C1200.42 284.26 1204.68 281.423 1209.48 281.507C1209.91 268.325 1208.81 219.603 1209.43 198.663C1214.36 198.371 1219.3 198.621 1224.22 199.226C1225.87 197.14 1227.45 195.013 1228.96 192.823C1232 194.867 1235.57 195.722 1239.22 195.618C1239.47 196.723 1239.72 197.849 1240.01 198.976C1243.74 199.017 1247.48 199.205 1251.19 199.539C1251.63 204.315 1251.57 209.112 1251.4 213.888C1257.36 213.93 1262.52 217.518 1268.48 217.935C1269.61 219.541 1271.11 220.792 1272.9 221.647C1273.8 227.717 1273.32 233.828 1273.32 239.918C1280.68 239.584 1288.02 239.021 1295.39 239.501C1295.8 227.863 1295.11 174.573 1295.59 147.73C1300.56 147.521 1305.54 147.584 1310.55 147.563C1310.49 142.495 1311.11 137.468 1310.99 132.4C1316.41 132.192 1321.85 132.379 1327.3 132.296C1329.34 125.33 1327.11 126.539 1335.64 125.497C1335.77 111.814 1335.14 98.0279 1336.58 84.4082C1338.43 88.3711 1337.93 111.773 1338.02 125.205C1341.02 125.601 1343.5 127.311 1345.63 129.397C1347.53 131.316 1350.82 131.587 1352.47 133.568C1353.2 139.095 1352.68 213.659 1352.81 294.25C1356.2 294.334 1359.6 294.334 1363.03 294.25C1363.15 285.762 1362.65 227.904 1363.44 219.478C1366.28 219.353 1369.14 219.207 1371.99 218.957C1372.16 213.972 1371.18 208.716 1373.27 204.002C1378.13 203.94 1382.99 203.919 1387.84 204.127C1388.43 208.924 1388.32 213.763 1388.07 218.581C1394.33 222.69 1392.75 215.912 1392.83 247.948C1397.98 247.823 1403.15 247.677 1408.33 248.073C1408.93 254.122 1408.35 260.212 1408.51 266.26C1411.25 267.157 1414.1 267.574 1416.86 268.367C1416.86 272.267 1416.61 276.167 1416.86 280.068C1420.34 280.151 1423.82 280.151 1427.33 280.214C1427.24 274.749 1426.76 218.122 1427.7 212.637C1433.08 212.804 1438.55 212.324 1443.91 213.054C1448.29 214.243 1452.63 215.766 1457.22 215.912C1457.28 217.538 1457.34 219.144 1457.47 220.792C1459.91 220.73 1462.37 220.646 1464.83 220.584C1464.83 217.935 1464.83 215.286 1464.85 212.658C1468.44 212.095 1472.04 212.116 1475.65 212.47C1475.84 213.659 1476.07 214.848 1476.32 216.037C1479.66 216.078 1483.04 216.099 1486.39 216.099C1486.54 214.347 1486.64 212.595 1486.77 210.864C1490.44 210.864 1494.11 210.739 1497.78 210.718C1497.78 210.718 1498.35 267.783 1498.03 295.94C1499.22 295.898 1500.41 295.877 1501.62 295.856C1502.16 284.656 1501.45 175.136 1501.74 171.59C1505.65 171.319 1509.55 171.361 1513.47 171.507C1513.26 162.872 1513.15 110.5 1513.53 103.659C1520.25 103.159 1527 103.492 1533.74 103.722C1533.91 100.781 1533.78 97.8401 1533.8 94.8993C1533.68 92.6885 1535.66 91.0616 1535.78 88.9133C1535.32 79.34 1535.47 69.7249 1535.2 60.1307C1535.43 57.5027 1534.51 54.2073 1536.76 52.2259C1545.96 42.7568 1540.62 48.3465 1542.44 7.00795C1543.33 6.29881 1544.25 5.58968 1545.21 4.90139C1545.42 18.521 1544.71 32.1406 1545.27 45.7602C1544.88 50.0985 1550.57 51.621 1550.47 55.8133C1550.55 66.6172 1550.65 77.4211 1549.99 88.2042C1549.63 91.1242 1553.49 92.1253 1553.41 94.8993C1553.51 99.7173 1553.12 104.514 1553.16 109.332C1554.62 109.165 1556.12 108.978 1557.62 108.832C1557.7 105.682 1557.41 102.47 1557.93 99.3627C1559.19 96.6513 1562.44 96.2342 1564.88 95.087C1568.65 93.8773 1570.97 90.1022 1582.13 92.1879C1590.55 95.2122 1583 89.4973 1585.67 256.52C1594.6 256.478 1603.55 256.353 1612.5 256.77C1612.79 268.033 1612.25 279.317 1612.58 290.58C1613.43 290.705 1614.33 290.851 1615.23 290.997C1615.04 285.261 1615.08 279.505 1615.08 273.748C1615.71 273.769 1616.94 273.79 1617.56 273.79C1617.58 279.943 1617.38 286.074 1617.61 292.206C1630.47 292.853 1623.61 292.29 1633.42 289.954C1634.56 271.391 1631.43 195.951 1635.44 194.053C1639.11 193.532 1642.86 193.761 1646.56 193.511C1646.78 192.552 1647.03 191.571 1647.31 190.612C1650.12 190.383 1652.6 189.089 1654.46 186.941C1655.52 188.067 1656.59 189.194 1657.69 190.299C1673.63 189.173 1673.52 191.571 1680.53 188.714C1682.47 189.465 1684.45 190.132 1686.48 190.716C1687 191.738 1687.54 192.76 1688.23 193.72C1690.33 194.325 1690.63 191.697 1691.52 190.403C1692.13 190.362 1692.77 190.32 1693.42 190.278C1693.69 191.279 1693.96 192.281 1694.26 193.282C1695.8 193.469 1697.34 193.657 1698.91 193.845C1699.28 200.269 1699.14 252.015 1699.01 259.857C1700.12 259.857 1701.24 259.836 1702.41 259.816C1702.89 255.436 1700.99 249.971 1704.66 246.592C1707.17 243.735 1711.55 242.337 1712.42 238.229C1712.78 233.723 1713.21 228.947 1711.5 224.651C1712.38 223.545 1713.36 222.502 1714.09 221.272C1714.57 218.414 1713.9 215.39 1714.82 212.637C1716.84 210.468 1719.85 209.738 1722.33 208.215C1723.93 202.813 1721.33 197.182 1722.77 191.738C1723.66 187.942 1720.87 184.897 1719.66 181.581C1720.47 179.141 1721.58 176.429 1723.77 174.948C1729.36 174.823 1727.79 176.408 1727.81 312.354H0V159.952C1.27227 161.058 2.5237 162.351 4.15054 162.935C5.46453 162.372 6.67424 161.6 7.9048 160.87C8.7808 162.101 9.61508 163.373 10.5745 164.541C13.265 164.145 14.871 161.496 16.8942 159.931C19.8976 163.227 23.7144 165.458 27.6147 167.544C28.6575 170.026 28.1152 172.925 28.4698 175.595C29.7212 175.282 31.1186 175.011 31.6401 173.655C34.5392 168.17 38.064 162.664 38.0223 156.219C38.3769 156.469 39.0443 156.97 39.3989 157.241C40.3166 163.373 43.0488 169.004 46.0522 174.385C59.2756 198.621 54.3533 187.379 55.563 198.475C56.6476 198.705 57.7322 198.913 58.8167 199.122C59.3381 205.441 59.0879 241.566 58.9836 247.698C60.4436 247.927 61.8827 248.156 63.3218 248.386C63.9267 249.324 64.1561 250.576 65.1572 251.202C68.2649 251.473 71.3935 251.348 74.5012 251.389C74.5637 248.782 74.4803 246.133 74.7306 243.526C75.0017 240.669 76.3574 238.02 76.3783 235.121C76.6912 229.74 75.4606 224.046 77.9217 218.998C78.6308 216.6 81.1128 215.724 83.0942 214.702C81.8637 197.849 90.2065 190.091 92.8762 190.654C97.569 191.259 101.365 194.763 103.743 198.725C105.516 201.937 108.665 203.94 110.834 206.797C111.564 210.009 111.314 213.346 111.668 216.621C115.339 216.141 118.635 213.909 122.389 214.201C131.274 214.118 140.159 214.41 149.002 213.847C149.565 207.464 147.834 200.373 151.276 194.617C152.506 193.949 153.883 193.636 155.218 193.219C155.739 179.057 157.324 190.946 157.491 171.319C158.534 170.464 159.577 169.651 160.641 168.816C160.349 163.769 163.561 159.118 161.913 154.091H164.061C162.455 159.118 165.584 163.79 165.312 168.816C166.334 169.672 167.377 170.506 168.42 171.34C168.441 175.491 167.774 179.808 169.254 183.792C170.11 186.253 170.151 188.902 170.944 191.384C172.091 193.741 173.551 195.951 174.281 198.496C176.033 203.272 174.677 208.445 175.449 213.367C177.743 217.434 176.826 215.807 195.931 215.786C195.972 192.573 195.722 169.38 196.056 146.187C197.641 146.041 199.226 145.895 200.811 145.728C200.999 144.226 201.166 142.724 201.353 141.223C203.94 140.534 206.547 139.867 209.196 139.408C209.529 138.449 209.842 137.51 210.176 136.572C211.678 135.57 213.93 134.945 214.306 132.901C217.017 123.578 219.582 129.272 225.401 128.959C230.866 128.792 236.456 129.897 241.753 128.041C245.32 126.915 246.446 131.503 246.822 134.131C249.491 134.298 252.182 134.382 254.852 134.423C257.125 137.26 256.687 140.931 256.624 144.33C258.314 144.33 259.982 144.33 261.672 144.33C261.922 143.246 262.152 142.203 262.381 141.118C266.803 141.369 271.329 140.701 275.688 141.452C278.045 143.1 280.401 144.935 283.467 144.81C282.988 166.314 282.946 253.266 283.3 263.403C284.76 263.611 286.262 263.799 287.764 263.987C288.223 264.759 288.682 265.53 289.161 266.281C293.041 267.428 296.92 269.201 301.071 268.388C301.008 238.02 301.383 207.673 301.029 177.326C303.803 175.741 306.514 174.01 309.059 172.07C311.812 174.385 315.045 175.929 318.132 177.702C318.778 178.849 318.403 223.9 318.382 224.567C323.012 224.254 327.663 224.421 332.314 224.463C332.377 227.341 332.064 230.261 332.627 233.119C333.566 234.599 335.506 235.642 335.422 237.603C335.589 241.128 335.422 244.673 335.652 248.198C341.074 248.428 346.518 248.532 351.941 248.469C351.795 231.992 352.024 215.536 351.795 199.08C355.069 199.017 358.344 199.017 361.618 199.017C361.848 194.491 361.347 189.945 361.577 185.419C362.807 185.168 364.059 184.918 365.331 184.647C364.184 107.226 366.436 151.359 367.292 114.442C373.716 111.856 381.287 111.585 387.585 114.651C388.399 119.385 387.711 124.203 388.023 128.959C388.128 131.295 389.504 133.339 389.692 135.675C389.984 140.493 389.588 145.352 389.796 150.191C389.88 153.925 391.715 157.345 391.757 161.099C392.07 169.129 391.673 177.18 391.882 185.231C393.154 185.189 394.427 185.147 395.699 185.085C395.824 181.31 395.887 177.514 395.866 173.739C398.014 173.614 400.141 173.509 402.269 173.384C402.415 171.382 402.352 169.338 402.832 167.398C406.962 159.264 405.522 179.162 405.71 88.7882C408.234 87.9539 410.653 86.7859 413.219 86.1185C415.075 86.0559 416.848 86.8485 418.704 86.7234C423.668 85.9725 428.632 87.3282 433.617 86.7651C433.805 88.5171 434.034 90.2691 434.326 92.0002C435.118 90.8739 435.869 89.6851 436.558 88.4753C439.165 88.4128 441.793 88.4336 444.4 88.3919C444.525 79.3817 443.691 70.3715 444.525 61.3613C446.152 60.6938 447.8 60.0473 449.468 59.4216C449.739 57.8781 450.01 56.3139 450.302 54.7913C453.869 54.0405 457.394 53.081 460.939 52.2468C461.815 34.9563 460.835 17.6242 461.649 0.333712V0.312855Z" fill="#767680" fill-opacity="0.17"/>
</svg>
