<svg width="70" height="74" viewBox="0 0 70 74" fill="none" xmlns="http://www.w3.org/2000/svg">
<path d="M57.9738 1.29831C58.7291 0.0322807 60.3619 -0.378248 61.6208 0.381371L60.2532 2.67372C61.6208 0.381371 61.6196 0.380645 61.6208 0.381371L61.6257 0.384344L61.6313 0.387734L61.6444 0.395767L61.6784 0.416864C61.7045 0.43317 61.7372 0.453984 61.7762 0.479356C61.8542 0.530083 61.9574 0.599138 62.0821 0.686939C62.3314 0.862379 62.668 1.11368 63.0625 1.4443C63.8497 2.10403 64.8792 3.08958 65.9044 4.42998C67.9703 7.13087 70 11.2545 70 16.9314C70 22.6083 67.9703 26.732 65.9044 29.4329C64.8792 30.7733 63.8497 31.7588 63.0625 32.4186C62.668 32.7492 62.3314 33.0005 62.0821 33.1759C61.9574 33.2637 61.8542 33.3328 61.7762 33.3835C61.7568 33.3962 61.7389 33.4077 61.7226 33.4181C61.7062 33.4285 61.6915 33.4378 61.6784 33.446L61.6444 33.4671L61.6313 33.4751L61.6257 33.4785C61.6245 33.4792 61.6208 33.4815 60.2532 31.1891L61.6208 33.4815C60.3619 34.2411 58.7291 33.8306 57.9738 32.5646C57.2216 31.3039 57.6232 29.6702 58.8697 28.9064L58.8893 28.8938C58.9151 28.877 58.9643 28.8444 59.0334 28.7958C59.1718 28.6983 59.389 28.5375 59.659 28.3112C60.2009 27.857 60.9436 27.1495 61.6905 26.173C63.1689 24.2401 64.6835 21.2349 64.6835 16.9314C64.6835 12.6279 63.1689 9.62274 61.6905 7.68988C60.9436 6.7134 60.2009 6.00585 59.659 5.5517C59.389 5.32538 59.1718 5.16454 59.0334 5.06708C58.9643 5.01843 58.9151 4.98584 58.8893 4.96904L58.8697 4.95645C57.6232 4.19266 57.2216 2.55902 57.9738 1.29831Z" fill="white"/>
<path d="M28.3544 31.1891C36.1843 31.1891 42.5316 24.8057 42.5316 16.9314C42.5316 9.05712 36.1843 2.67372 28.3544 2.67372C20.5246 2.67372 14.1772 9.05712 14.1772 16.9314C14.1772 24.8057 20.5246 31.1891 28.3544 31.1891Z" fill="white"/>
<path d="M0 57.9223C0 66.7809 0 73.9623 28.3544 73.9623C56.7089 73.9623 56.7089 66.7809 56.7089 57.9223C56.7089 49.0637 44.0142 41.8824 28.3544 41.8824C12.6947 41.8824 0 49.0637 0 57.9223Z" fill="white"/>
<path d="M54.5322 7.51022C53.2733 6.75061 51.6405 7.16113 50.8851 8.42717L51.7649 12.0753L51.7925 12.0943C51.834 12.1235 51.9127 12.1813 52.0166 12.2684C52.2262 12.4441 52.5259 12.7284 52.8297 13.1256C53.4221 13.9001 54.0506 15.123 54.0506 16.9314C54.0506 18.7398 53.4221 19.9628 52.8297 20.7372C52.5259 21.1345 52.2262 21.4188 52.0166 21.5944C51.9127 21.6815 51.834 21.7393 51.7925 21.7686L51.7649 21.7875C50.5312 22.5555 50.1362 24.1804 50.8851 25.4357C51.6405 26.7017 53.2733 27.1123 54.5322 26.3526L53.1646 24.0603C54.5322 26.3526 54.531 26.3533 54.5322 26.3526L54.537 26.3498L54.5421 26.3467L54.5533 26.3398L54.5797 26.3234L54.6478 26.2799C54.6999 26.246 54.765 26.2024 54.8412 26.1487C54.9935 26.0415 55.1917 25.8932 55.4201 25.7019C55.875 25.3206 56.4615 24.7583 57.0437 23.9971C58.2235 22.4547 59.3671 20.1132 59.3671 16.9314C59.3671 13.7496 58.2235 11.4082 57.0437 9.86573C56.4615 9.10455 55.875 8.54227 55.4201 8.16101C55.1917 7.96963 54.9935 7.82137 54.8412 7.71415C54.765 7.66046 54.6999 7.61682 54.6478 7.58297L54.5797 7.53943L54.5533 7.52305L54.5421 7.5162L54.537 7.5131C54.5358 7.51239 54.5322 7.51022 53.1646 9.80258L54.5322 7.51022Z" fill="white"/>
</svg>
