<svg width="91" height="91" viewBox="0 0 91 91" fill="none" xmlns="http://www.w3.org/2000/svg">
<path d="M14.6667 6.5C17.4281 6.5 19.6667 8.73858 19.6667 11.5V14.5C19.6667 17.2614 17.4281 19.5 14.6667 19.5H11.5556C8.79413 19.5 6.55556 17.2614 6.55556 14.5V11.5C6.55556 8.73858 8.79413 6.5 11.5556 6.5H14.6667ZM5 0C2.23858 0 0 2.23858 0 5V21C0 23.7614 2.23858 26 5 26H21.2222C23.9836 26 26.2222 23.7614 26.2222 21V5C26.2222 2.23858 23.9836 0 21.2222 0H5ZM47.4444 16.25C50.2059 16.25 52.4444 18.4886 52.4444 21.25V24.25C52.4444 27.0114 50.2059 29.25 47.4444 29.25H44.3333C41.5719 29.25 39.3333 27.0114 39.3333 24.25V21.25C39.3333 18.4886 41.5719 16.25 44.3333 16.25H47.4444ZM37.7778 9.75C35.0164 9.75 32.7778 11.9886 32.7778 14.75V30.75C32.7778 33.5114 35.0164 35.75 37.7778 35.75H54C56.7614 35.75 59 33.5114 59 30.75V14.75C59 11.9886 56.7614 9.75 54 9.75H37.7778ZM14.6667 45.5C17.4281 45.5 19.6667 47.7386 19.6667 50.5V53.5C19.6667 56.2614 17.4281 58.5 14.6667 58.5H11.5556C8.79413 58.5 6.55556 56.2614 6.55556 53.5V50.5C6.55556 47.7386 8.79413 45.5 11.5556 45.5H14.6667ZM5 39C2.23858 39 0 41.2386 0 44V60C0 62.7614 2.23858 65 5 65H21.2222C23.9836 65 26.2222 62.7614 26.2222 60V44C26.2222 41.2386 23.9836 39 21.2222 39H5Z" fill="white"/>
<path d="M70 26C67.2386 26 65 28.2386 65 31V40.5C65 43.2614 62.7614 45.5 60 45.5H50.5C47.7386 45.5 45.5 47.7386 45.5 50.5V60C45.5 62.7614 43.2614 65 40.5 65H31C28.2386 65 26 67.2386 26 70V86C26 88.7614 28.2386 91 31 91H86C88.7614 91 91 88.7614 91 86V31C91 28.2386 88.7614 26 86 26H70ZM52 57C52 54.2386 54.2386 52 57 52H60C62.7614 52 65 54.2386 65 57V60C65 62.7614 62.7614 65 60 65H57C54.2386 65 52 62.7614 52 60V57ZM45.5 79.5C45.5 82.2614 43.2614 84.5 40.5 84.5H37.5C34.7386 84.5 32.5 82.2614 32.5 79.5V76.5C32.5 73.7386 34.7386 71.5 37.5 71.5H40.5C43.2614 71.5 45.5 73.7386 45.5 76.5V79.5ZM65 79.5C65 82.2614 62.7614 84.5 60 84.5H57C54.2386 84.5 52 82.2614 52 79.5V76.5C52 73.7386 54.2386 71.5 57 71.5H60C62.7614 71.5 65 73.7386 65 76.5V79.5ZM84.5 79.5C84.5 82.2614 82.2614 84.5 79.5 84.5H76.5C73.7386 84.5 71.5 82.2614 71.5 79.5V76.5C71.5 73.7386 73.7386 71.5 76.5 71.5H79.5C82.2614 71.5 84.5 73.7386 84.5 76.5V79.5ZM84.5 60C84.5 62.7614 82.2614 65 79.5 65H76.5C73.7386 65 71.5 62.7614 71.5 60V57C71.5 54.2386 73.7386 52 76.5 52H79.5C82.2614 52 84.5 54.2386 84.5 57V60ZM76.5 45.5C73.7386 45.5 71.5 43.2614 71.5 40.5V37.5C71.5 34.7386 73.7386 32.5 76.5 32.5H79.5C82.2614 32.5 84.5 34.7386 84.5 37.5V40.5C84.5 43.2614 82.2614 45.5 79.5 45.5H76.5Z" fill="white"/>
</svg>
