<svg width="43" height="30" viewBox="0 0 43 30" fill="none" xmlns="http://www.w3.org/2000/svg">
<path d="M13.7164 11.7961C5.67702 10.2157 8.72444 0.379413 15.4618 0.379413C18.0935 0.377123 20.7149 0.36109 23.326 0.331314C23.4226 0.330677 23.5184 0.349848 23.6073 0.387633C23.6962 0.425419 23.7764 0.48101 23.8427 0.550946C23.9091 0.620881 23.9604 0.703664 23.9932 0.794141C24.0261 0.884618 24.0399 0.980852 24.0337 1.07685C23.9856 1.7949 23.6352 2.07319 22.9103 2.08006C20.6244 2.10068 18.3363 2.09839 16.0458 2.07319C12.4349 2.03196 8.5183 6.11352 12.0227 9.20561C13.3076 10.3394 16.4272 10.2913 18.0969 10.4287C18.9799 10.5043 19.6945 10.944 19.2341 11.9301C19.193 12.0195 19.1269 12.0955 19.0436 12.149C18.9602 12.2025 18.8631 12.2315 18.7634 12.2324C13.9947 12.2874 12.404 16.5132 11.4867 20.3852C10.4148 24.9134 6.51532 28.0845 2.25167 29.421C1.40994 29.6821 0.784647 29.9982 0.392982 29.0396C0.353742 28.9446 0.334022 28.8427 0.334995 28.7399C0.335969 28.6371 0.357617 28.5356 0.39865 28.4413C0.439683 28.3471 0.499262 28.2621 0.573839 28.1913C0.648416 28.1206 0.736465 28.0656 0.832745 28.0296C6.42599 25.951 8.99586 23.8415 10.3495 17.7879C10.8122 15.7196 11.9574 13.7991 13.7852 12.0263C13.9111 11.9049 13.8882 11.8282 13.7164 11.7961Z" fill="white"/>
<path d="M26.3716 0.313995L26.248 0.314211C25.785 0.315019 25.4103 0.690992 25.4111 1.15397L25.4594 28.8109C25.4602 29.2739 25.8362 29.6486 26.2992 29.6478L26.4228 29.6476C26.8858 29.6468 27.2605 29.2708 27.2597 28.8078L27.2114 1.15083C27.2106 0.68785 26.8346 0.313187 26.3716 0.313995Z" fill="white"/>
<path d="M41.8408 0.369141H29.5892C29.1301 0.369141 28.7578 0.741383 28.7578 1.20057V1.25554C28.7578 1.71472 29.1301 2.08697 29.5892 2.08697H41.8408C42.3 2.08697 42.6722 1.71472 42.6722 1.25554V1.20057C42.6722 0.741383 42.3 0.369141 41.8408 0.369141Z" fill="white"/>
<path d="M41.7682 12.9406L29.6611 12.8984C29.1696 12.8967 28.7698 13.2937 28.7681 13.7851L28.768 13.8263C28.7663 14.3178 29.1633 14.7175 29.6547 14.7193L41.7619 14.7615C42.2533 14.7632 42.6531 14.3662 42.6548 13.8748L42.655 13.8336C42.6567 13.3421 42.2597 12.9423 41.7682 12.9406Z" fill="white"/>
<path d="M41.7858 27.8577H29.6373C29.1516 27.8577 28.7578 28.2514 28.7578 28.7372V28.7716C28.7578 29.2573 29.1516 29.6511 29.6373 29.6511H41.7858C42.2716 29.6511 42.6653 29.2573 42.6653 28.7716V28.7372C42.6653 28.2514 42.2716 27.8577 41.7858 27.8577Z" fill="white"/>
</svg>
