<svg width="91" height="91" viewBox="0 0 91 91" fill="none" xmlns="http://www.w3.org/2000/svg">
<path d="M58.7709 28.4375C58.7709 35.7668 52.8294 41.7084 45.5001 41.7084C38.1708 41.7084 32.2292 35.7668 32.2292 28.4375C32.2292 21.1082 38.1708 15.1667 45.5001 15.1667C52.8294 15.1667 58.7709 21.1082 58.7709 28.4375Z" fill="#CEA964"/>
<path d="M68.25 62.5625C68.25 69.8918 58.0645 75.8334 45.5 75.8334C32.9355 75.8334 22.75 69.8918 22.75 62.5625C22.75 55.2332 32.9355 49.2917 45.5 49.2917C58.0645 49.2917 68.25 55.2332 68.25 62.5625Z" fill="#CEA964"/>
<path d="M27.0044 18.9583C27.6772 18.9583 28.3341 19.0243 28.9685 19.15C27.4231 21.8948 26.5416 25.0632 26.5416 28.4375C26.5416 31.7296 27.3807 34.8257 28.8568 37.5237C28.2571 37.6354 27.6378 37.6939 27.0044 37.6939C21.6414 37.6939 17.2938 33.4998 17.2938 28.3261C17.2938 23.1524 21.6414 18.9583 27.0044 18.9583Z" fill="#CEA964"/>
<path d="M20.6544 71.9884C18.5011 69.4143 17.0624 66.2556 17.0624 62.5625C17.0624 58.9822 18.4144 55.9043 20.4589 53.3743C13.237 53.9344 7.58325 57.8843 7.58325 62.6739C7.58325 67.5084 13.3364 71.4874 20.6544 71.9884Z" fill="#CEA964"/>
<path d="M64.4581 28.4375C64.4581 31.7296 63.619 34.8258 62.1429 37.5237C62.7426 37.6354 63.3619 37.6939 63.9953 37.6939C69.3583 37.6939 73.7059 33.4998 73.7059 28.3261C73.7059 23.1524 69.3583 18.9583 63.9953 18.9583C63.3225 18.9583 62.6656 19.0243 62.0312 19.15C63.5766 21.8948 64.4581 25.0632 64.4581 28.4375Z" fill="#CEA964"/>
<path d="M70.3453 71.9884C77.6633 71.4874 83.4165 67.5084 83.4165 62.6739C83.4165 57.8843 77.7627 53.9344 70.5408 53.3743C72.5853 55.9043 73.9373 58.9822 73.9373 62.5625C73.9373 66.2556 72.4986 69.4143 70.3453 71.9884Z" fill="#CEA964"/>
</svg>
