<svg width="30" height="30" viewBox="0 0 30 30" fill="none" xmlns="http://www.w3.org/2000/svg">
<path fill-rule="evenodd" clip-rule="evenodd" d="M14.0055 2.66675C7.56221 2.66675 2.33887 7.89009 2.33887 14.3334C2.33887 20.7767 7.56221 26.0001 14.0055 26.0001C20.4489 26.0001 25.6722 20.7767 25.6722 14.3334C25.6722 7.89009 20.4489 2.66675 14.0055 2.66675ZM0.338867 14.3334C0.338867 6.78552 6.45764 0.666748 14.0055 0.666748C21.5534 0.666748 27.6722 6.78552 27.6722 14.3334C27.6722 21.8813 21.5534 28.0001 14.0055 28.0001C6.45764 28.0001 0.338867 21.8813 0.338867 14.3334ZM24.6318 24.9596C25.0223 24.5691 25.6554 24.5691 26.046 24.9596L28.7126 27.6263C29.1032 28.0168 29.1032 28.65 28.7126 29.0405C28.3221 29.431 27.689 29.431 27.2984 29.0405L24.6318 26.3739C24.2412 25.9833 24.2412 25.3502 24.6318 24.9596Z" fill="white"/>
</svg>
